<mxfile host="app.diagrams.net" agent="Mozilla/5.0 (Windows NT 10.0; Win64; x64) AppleWebKit/537.36 (KHTML, like Gecko) Chrome/135.0.0.0 Safari/537.36" version="26.2.14">
  <diagram name="Page-1" id="dP5tkW-FkFB-AShERSOB">
    <mxGraphModel dx="2628" dy="959" grid="1" gridSize="10" guides="1" tooltips="1" connect="1" arrows="1" fold="1" page="1" pageScale="1" pageWidth="850" pageHeight="1100" math="0" shadow="0">
      <root>
        <mxCell id="0" />
        <mxCell id="1" parent="0" />
        <mxCell id="UZ3ScZJVWBaTOyQg6A5V-73" value="" style="rounded=1;whiteSpace=wrap;html=1;fillColor=#f5f5f5;fontColor=#333333;strokeColor=#666666;" vertex="1" parent="1">
          <mxGeometry x="160" y="350" width="240" height="100" as="geometry" />
        </mxCell>
        <mxCell id="UZ3ScZJVWBaTOyQg6A5V-1" value="Host" style="rounded=0;whiteSpace=wrap;html=1;fillColor=#dae8fc;strokeColor=#6c8ebf;" vertex="1" parent="1">
          <mxGeometry x="210" y="160" width="80" height="40" as="geometry" />
        </mxCell>
        <mxCell id="UZ3ScZJVWBaTOyQg6A5V-3" value="APU" style="rounded=0;whiteSpace=wrap;html=1;fillColor=#fff2cc;strokeColor=#d6b656;" vertex="1" parent="1">
          <mxGeometry x="210" y="280" width="80" height="40" as="geometry" />
        </mxCell>
        <mxCell id="UZ3ScZJVWBaTOyQg6A5V-4" value="" style="curved=1;endArrow=classic;html=1;rounded=0;entryX=0.75;entryY=0;entryDx=0;entryDy=0;exitX=0.75;exitY=1;exitDx=0;exitDy=0;" edge="1" parent="1" source="UZ3ScZJVWBaTOyQg6A5V-1" target="UZ3ScZJVWBaTOyQg6A5V-3">
          <mxGeometry width="50" height="50" relative="1" as="geometry">
            <mxPoint x="630" y="440" as="sourcePoint" />
            <mxPoint x="680" y="390" as="targetPoint" />
            <Array as="points">
              <mxPoint x="330" y="240" />
            </Array>
          </mxGeometry>
        </mxCell>
        <mxCell id="UZ3ScZJVWBaTOyQg6A5V-20" value="Step 1" style="edgeLabel;html=1;align=center;verticalAlign=middle;resizable=0;points=[];" vertex="1" connectable="0" parent="UZ3ScZJVWBaTOyQg6A5V-4">
          <mxGeometry x="-0.3408" y="-15" relative="1" as="geometry">
            <mxPoint as="offset" />
          </mxGeometry>
        </mxCell>
        <mxCell id="UZ3ScZJVWBaTOyQg6A5V-5" value="" style="curved=1;endArrow=classic;html=1;rounded=0;entryX=0.262;entryY=1.003;entryDx=0;entryDy=0;exitX=0.25;exitY=0;exitDx=0;exitDy=0;entryPerimeter=0;" edge="1" parent="1" source="UZ3ScZJVWBaTOyQg6A5V-3" target="UZ3ScZJVWBaTOyQg6A5V-1">
          <mxGeometry width="50" height="50" relative="1" as="geometry">
            <mxPoint x="280" y="250" as="sourcePoint" />
            <mxPoint x="280" y="330" as="targetPoint" />
            <Array as="points">
              <mxPoint x="170" y="240" />
            </Array>
          </mxGeometry>
        </mxCell>
        <mxCell id="UZ3ScZJVWBaTOyQg6A5V-6" value="" style="rounded=0;whiteSpace=wrap;html=1;fillColor=#ffe6cc;strokeColor=#d79b00;" vertex="1" parent="1">
          <mxGeometry x="220" y="360" width="20" height="80" as="geometry" />
        </mxCell>
        <mxCell id="UZ3ScZJVWBaTOyQg6A5V-7" value="" style="rounded=0;whiteSpace=wrap;html=1;fillColor=#ffe6cc;strokeColor=#d79b00;" vertex="1" parent="1">
          <mxGeometry x="260" y="360" width="20" height="80" as="geometry" />
        </mxCell>
        <mxCell id="UZ3ScZJVWBaTOyQg6A5V-8" value="" style="rounded=0;whiteSpace=wrap;html=1;fillColor=#ffe6cc;strokeColor=#d79b00;" vertex="1" parent="1">
          <mxGeometry x="300" y="360" width="20" height="80" as="geometry" />
        </mxCell>
        <mxCell id="UZ3ScZJVWBaTOyQg6A5V-9" value="" style="rounded=0;whiteSpace=wrap;html=1;fillColor=#ffe6cc;strokeColor=#d79b00;" vertex="1" parent="1">
          <mxGeometry x="180" y="360" width="20" height="80" as="geometry" />
        </mxCell>
        <mxCell id="UZ3ScZJVWBaTOyQg6A5V-10" value="" style="endArrow=classic;html=1;rounded=0;exitX=0.5;exitY=1;exitDx=0;exitDy=0;entryX=0.5;entryY=0;entryDx=0;entryDy=0;" edge="1" parent="1" source="UZ3ScZJVWBaTOyQg6A5V-3" target="UZ3ScZJVWBaTOyQg6A5V-7">
          <mxGeometry width="50" height="50" relative="1" as="geometry">
            <mxPoint x="420" y="480" as="sourcePoint" />
            <mxPoint x="470" y="430" as="targetPoint" />
          </mxGeometry>
        </mxCell>
        <mxCell id="UZ3ScZJVWBaTOyQg6A5V-21" value="Step 2" style="edgeLabel;html=1;align=center;verticalAlign=middle;resizable=0;points=[];" vertex="1" connectable="0" parent="UZ3ScZJVWBaTOyQg6A5V-10">
          <mxGeometry x="-0.17" relative="1" as="geometry">
            <mxPoint as="offset" />
          </mxGeometry>
        </mxCell>
        <mxCell id="UZ3ScZJVWBaTOyQg6A5V-11" value="DPC&lt;div&gt;Ant &amp;amp; SPM&lt;/div&gt;" style="ellipse;whiteSpace=wrap;html=1;fillColor=#e1d5e7;strokeColor=#9673a6;" vertex="1" parent="1">
          <mxGeometry x="200" y="520" width="80" height="40" as="geometry" />
        </mxCell>
        <mxCell id="UZ3ScZJVWBaTOyQg6A5V-12" value="" style="endArrow=classic;html=1;rounded=0;exitX=0.5;exitY=1;exitDx=0;exitDy=0;entryX=0.5;entryY=0;entryDx=0;entryDy=0;" edge="1" parent="1" source="UZ3ScZJVWBaTOyQg6A5V-7" target="UZ3ScZJVWBaTOyQg6A5V-11">
          <mxGeometry width="50" height="50" relative="1" as="geometry">
            <mxPoint x="290" y="570" as="sourcePoint" />
            <mxPoint x="340" y="520" as="targetPoint" />
          </mxGeometry>
        </mxCell>
        <mxCell id="UZ3ScZJVWBaTOyQg6A5V-22" value="Step 3" style="edgeLabel;html=1;align=center;verticalAlign=middle;resizable=0;points=[];" vertex="1" connectable="0" parent="UZ3ScZJVWBaTOyQg6A5V-12">
          <mxGeometry x="-0.0292" relative="1" as="geometry">
            <mxPoint as="offset" />
          </mxGeometry>
        </mxCell>
        <mxCell id="UZ3ScZJVWBaTOyQg6A5V-13" value="TDMA" style="rounded=0;whiteSpace=wrap;html=1;fillColor=#d5e8d4;strokeColor=#82b366;" vertex="1" parent="1">
          <mxGeometry x="360" y="530" width="80" height="20" as="geometry" />
        </mxCell>
        <mxCell id="UZ3ScZJVWBaTOyQg6A5V-14" value="" style="ellipse;whiteSpace=wrap;html=1;aspect=fixed;fillColor=#f8cecc;strokeColor=#b85450;" vertex="1" parent="1">
          <mxGeometry x="260" y="360" width="20" height="20" as="geometry" />
        </mxCell>
        <mxCell id="UZ3ScZJVWBaTOyQg6A5V-15" value="" style="ellipse;whiteSpace=wrap;html=1;aspect=fixed;fillColor=#f8cecc;strokeColor=#b85450;" vertex="1" parent="1">
          <mxGeometry x="260" y="380" width="20" height="20" as="geometry" />
        </mxCell>
        <mxCell id="UZ3ScZJVWBaTOyQg6A5V-16" value="" style="ellipse;whiteSpace=wrap;html=1;aspect=fixed;fillColor=#f8cecc;strokeColor=#b85450;" vertex="1" parent="1">
          <mxGeometry x="260" y="420" width="20" height="20" as="geometry" />
        </mxCell>
        <mxCell id="UZ3ScZJVWBaTOyQg6A5V-17" value="HBM Memory" style="rounded=0;whiteSpace=wrap;html=1;fillColor=#ffff88;strokeColor=#36393d;" vertex="1" parent="1">
          <mxGeometry x="120" y="640" width="400" height="20" as="geometry" />
        </mxCell>
        <mxCell id="UZ3ScZJVWBaTOyQg6A5V-18" value="Reduce Engine" style="rounded=0;whiteSpace=wrap;html=1;fillColor=#ffcccc;strokeColor=#36393d;" vertex="1" parent="1">
          <mxGeometry x="120" y="480" width="100" height="20" as="geometry" />
        </mxCell>
        <mxCell id="UZ3ScZJVWBaTOyQg6A5V-23" value="" style="curved=1;endArrow=classic;html=1;rounded=0;exitX=0.5;exitY=1;exitDx=0;exitDy=0;entryX=0.5;entryY=1;entryDx=0;entryDy=0;" edge="1" parent="1" source="UZ3ScZJVWBaTOyQg6A5V-11" target="UZ3ScZJVWBaTOyQg6A5V-11">
          <mxGeometry width="50" height="50" relative="1" as="geometry">
            <mxPoint x="340" y="500" as="sourcePoint" />
            <mxPoint x="200" y="560" as="targetPoint" />
            <Array as="points">
              <mxPoint x="200" y="600" />
              <mxPoint x="240" y="650" />
              <mxPoint x="280" y="600" />
            </Array>
          </mxGeometry>
        </mxCell>
        <mxCell id="UZ3ScZJVWBaTOyQg6A5V-24" value="Step5" style="edgeLabel;html=1;align=center;verticalAlign=middle;resizable=0;points=[];" vertex="1" connectable="0" parent="UZ3ScZJVWBaTOyQg6A5V-23">
          <mxGeometry x="-0.3551" y="4" relative="1" as="geometry">
            <mxPoint as="offset" />
          </mxGeometry>
        </mxCell>
        <mxCell id="UZ3ScZJVWBaTOyQg6A5V-25" value="" style="endArrow=classic;html=1;rounded=0;exitX=1;exitY=1;exitDx=0;exitDy=0;entryX=0;entryY=1;entryDx=0;entryDy=0;" edge="1" parent="1" source="UZ3ScZJVWBaTOyQg6A5V-11" target="UZ3ScZJVWBaTOyQg6A5V-13">
          <mxGeometry width="50" height="50" relative="1" as="geometry">
            <mxPoint x="210" y="540" as="sourcePoint" />
            <mxPoint x="350" y="540" as="targetPoint" />
          </mxGeometry>
        </mxCell>
        <mxCell id="UZ3ScZJVWBaTOyQg6A5V-26" value="Step 4" style="edgeLabel;html=1;align=center;verticalAlign=middle;resizable=0;points=[];" vertex="1" connectable="0" parent="UZ3ScZJVWBaTOyQg6A5V-25">
          <mxGeometry x="-0.0196" relative="1" as="geometry">
            <mxPoint as="offset" />
          </mxGeometry>
        </mxCell>
        <mxCell id="UZ3ScZJVWBaTOyQg6A5V-27" value="" style="curved=1;endArrow=classic;html=1;rounded=0;exitX=0.25;exitY=1;exitDx=0;exitDy=0;entryX=0.75;entryY=1;entryDx=0;entryDy=0;" edge="1" parent="1" source="UZ3ScZJVWBaTOyQg6A5V-13" target="UZ3ScZJVWBaTOyQg6A5V-13">
          <mxGeometry width="50" height="50" relative="1" as="geometry">
            <mxPoint x="210" y="540" as="sourcePoint" />
            <mxPoint x="260" y="490" as="targetPoint" />
            <Array as="points">
              <mxPoint x="400" y="720" />
            </Array>
          </mxGeometry>
        </mxCell>
        <mxCell id="UZ3ScZJVWBaTOyQg6A5V-30" value="Step 4" style="edgeLabel;html=1;align=center;verticalAlign=middle;resizable=0;points=[];" vertex="1" connectable="0" parent="UZ3ScZJVWBaTOyQg6A5V-27">
          <mxGeometry x="0.772" y="1" relative="1" as="geometry">
            <mxPoint as="offset" />
          </mxGeometry>
        </mxCell>
        <mxCell id="UZ3ScZJVWBaTOyQg6A5V-31" value="" style="curved=1;endArrow=classic;html=1;rounded=0;entryX=0;entryY=0;entryDx=0;entryDy=0;exitX=0;exitY=1;exitDx=0;exitDy=0;" edge="1" parent="1" source="UZ3ScZJVWBaTOyQg6A5V-11" target="UZ3ScZJVWBaTOyQg6A5V-11">
          <mxGeometry width="50" height="50" relative="1" as="geometry">
            <mxPoint x="159.9957287525381" y="557.072135623731" as="sourcePoint" />
            <mxPoint x="159.9957287525381" y="528.7878643762689" as="targetPoint" />
            <Array as="points">
              <mxPoint x="100" y="470" />
            </Array>
          </mxGeometry>
        </mxCell>
        <mxCell id="UZ3ScZJVWBaTOyQg6A5V-33" value="Step 6" style="edgeLabel;html=1;align=center;verticalAlign=middle;resizable=0;points=[];" vertex="1" connectable="0" parent="UZ3ScZJVWBaTOyQg6A5V-31">
          <mxGeometry x="-0.7074" relative="1" as="geometry">
            <mxPoint as="offset" />
          </mxGeometry>
        </mxCell>
        <mxCell id="UZ3ScZJVWBaTOyQg6A5V-34" value="" style="endArrow=classic;html=1;rounded=0;exitX=1;exitY=0;exitDx=0;exitDy=0;entryX=0;entryY=0;entryDx=0;entryDy=0;" edge="1" parent="1" source="UZ3ScZJVWBaTOyQg6A5V-11" target="UZ3ScZJVWBaTOyQg6A5V-13">
          <mxGeometry width="50" height="50" relative="1" as="geometry">
            <mxPoint x="270" y="560" as="sourcePoint" />
            <mxPoint x="320" y="510" as="targetPoint" />
          </mxGeometry>
        </mxCell>
        <mxCell id="UZ3ScZJVWBaTOyQg6A5V-38" value="Step 7" style="edgeLabel;html=1;align=center;verticalAlign=middle;resizable=0;points=[];" vertex="1" connectable="0" parent="UZ3ScZJVWBaTOyQg6A5V-34">
          <mxGeometry x="0.0123" y="1" relative="1" as="geometry">
            <mxPoint as="offset" />
          </mxGeometry>
        </mxCell>
        <mxCell id="UZ3ScZJVWBaTOyQg6A5V-35" value="LINK" style="rounded=0;whiteSpace=wrap;html=1;fillColor=#d5e8d4;strokeColor=#82b366;" vertex="1" parent="1">
          <mxGeometry x="500" y="530" width="80" height="20" as="geometry" />
        </mxCell>
        <mxCell id="UZ3ScZJVWBaTOyQg6A5V-36" value="" style="endArrow=classic;html=1;rounded=0;exitX=1;exitY=0.5;exitDx=0;exitDy=0;entryX=0;entryY=0.5;entryDx=0;entryDy=0;" edge="1" parent="1" source="UZ3ScZJVWBaTOyQg6A5V-13" target="UZ3ScZJVWBaTOyQg6A5V-35">
          <mxGeometry width="50" height="50" relative="1" as="geometry">
            <mxPoint x="360" y="440" as="sourcePoint" />
            <mxPoint x="410" y="390" as="targetPoint" />
          </mxGeometry>
        </mxCell>
        <mxCell id="UZ3ScZJVWBaTOyQg6A5V-37" value="Step 4/7" style="edgeLabel;html=1;align=center;verticalAlign=middle;resizable=0;points=[];" vertex="1" connectable="0" parent="UZ3ScZJVWBaTOyQg6A5V-36">
          <mxGeometry y="-1" relative="1" as="geometry">
            <mxPoint as="offset" />
          </mxGeometry>
        </mxCell>
        <mxCell id="UZ3ScZJVWBaTOyQg6A5V-107" value="TDU&lt;div&gt;Task List&lt;/div&gt;" style="text;html=1;align=center;verticalAlign=middle;whiteSpace=wrap;rounded=0;" vertex="1" parent="1">
          <mxGeometry x="340" y="385" width="60" height="30" as="geometry" />
        </mxCell>
        <mxCell id="UZ3ScZJVWBaTOyQg6A5V-108" value="" style="rounded=1;whiteSpace=wrap;html=1;fillColor=#f5f5f5;fontColor=#333333;strokeColor=#666666;" vertex="1" parent="1">
          <mxGeometry x="-280" y="350" width="240" height="100" as="geometry" />
        </mxCell>
        <mxCell id="UZ3ScZJVWBaTOyQg6A5V-109" value="Host" style="rounded=0;whiteSpace=wrap;html=1;fillColor=#dae8fc;strokeColor=#6c8ebf;" vertex="1" parent="1">
          <mxGeometry x="-230" y="160" width="80" height="40" as="geometry" />
        </mxCell>
        <mxCell id="UZ3ScZJVWBaTOyQg6A5V-110" value="APU" style="rounded=0;whiteSpace=wrap;html=1;fillColor=#fff2cc;strokeColor=#d6b656;" vertex="1" parent="1">
          <mxGeometry x="-230" y="280" width="80" height="40" as="geometry" />
        </mxCell>
        <mxCell id="UZ3ScZJVWBaTOyQg6A5V-111" value="" style="curved=1;endArrow=classic;html=1;rounded=0;entryX=0.75;entryY=0;entryDx=0;entryDy=0;exitX=0.75;exitY=1;exitDx=0;exitDy=0;" edge="1" parent="1" source="UZ3ScZJVWBaTOyQg6A5V-109" target="UZ3ScZJVWBaTOyQg6A5V-110">
          <mxGeometry width="50" height="50" relative="1" as="geometry">
            <mxPoint x="190" y="440" as="sourcePoint" />
            <mxPoint x="240" y="390" as="targetPoint" />
            <Array as="points">
              <mxPoint x="-110" y="240" />
            </Array>
          </mxGeometry>
        </mxCell>
        <mxCell id="UZ3ScZJVWBaTOyQg6A5V-112" value="Step 1" style="edgeLabel;html=1;align=center;verticalAlign=middle;resizable=0;points=[];" vertex="1" connectable="0" parent="UZ3ScZJVWBaTOyQg6A5V-111">
          <mxGeometry x="-0.3408" y="-15" relative="1" as="geometry">
            <mxPoint as="offset" />
          </mxGeometry>
        </mxCell>
        <mxCell id="UZ3ScZJVWBaTOyQg6A5V-113" value="" style="curved=1;endArrow=classic;html=1;rounded=0;entryX=0.262;entryY=1.003;entryDx=0;entryDy=0;exitX=0.25;exitY=0;exitDx=0;exitDy=0;entryPerimeter=0;" edge="1" parent="1" source="UZ3ScZJVWBaTOyQg6A5V-110" target="UZ3ScZJVWBaTOyQg6A5V-109">
          <mxGeometry width="50" height="50" relative="1" as="geometry">
            <mxPoint x="-160" y="250" as="sourcePoint" />
            <mxPoint x="-160" y="330" as="targetPoint" />
            <Array as="points">
              <mxPoint x="-270" y="240" />
            </Array>
          </mxGeometry>
        </mxCell>
        <mxCell id="UZ3ScZJVWBaTOyQg6A5V-114" value="" style="rounded=0;whiteSpace=wrap;html=1;fillColor=#ffe6cc;strokeColor=#d79b00;" vertex="1" parent="1">
          <mxGeometry x="-220" y="360" width="20" height="80" as="geometry" />
        </mxCell>
        <mxCell id="UZ3ScZJVWBaTOyQg6A5V-115" value="" style="rounded=0;whiteSpace=wrap;html=1;fillColor=#ffe6cc;strokeColor=#d79b00;" vertex="1" parent="1">
          <mxGeometry x="-180" y="360" width="20" height="80" as="geometry" />
        </mxCell>
        <mxCell id="UZ3ScZJVWBaTOyQg6A5V-116" value="" style="rounded=0;whiteSpace=wrap;html=1;fillColor=#ffe6cc;strokeColor=#d79b00;" vertex="1" parent="1">
          <mxGeometry x="-140" y="360" width="20" height="80" as="geometry" />
        </mxCell>
        <mxCell id="UZ3ScZJVWBaTOyQg6A5V-117" value="" style="rounded=0;whiteSpace=wrap;html=1;fillColor=#ffe6cc;strokeColor=#d79b00;" vertex="1" parent="1">
          <mxGeometry x="-260" y="360" width="20" height="80" as="geometry" />
        </mxCell>
        <mxCell id="UZ3ScZJVWBaTOyQg6A5V-118" value="" style="endArrow=classic;html=1;rounded=0;exitX=0.5;exitY=1;exitDx=0;exitDy=0;entryX=0.5;entryY=0;entryDx=0;entryDy=0;" edge="1" parent="1" source="UZ3ScZJVWBaTOyQg6A5V-110" target="UZ3ScZJVWBaTOyQg6A5V-115">
          <mxGeometry width="50" height="50" relative="1" as="geometry">
            <mxPoint x="-20" y="480" as="sourcePoint" />
            <mxPoint x="30" y="430" as="targetPoint" />
          </mxGeometry>
        </mxCell>
        <mxCell id="UZ3ScZJVWBaTOyQg6A5V-119" value="Step 2" style="edgeLabel;html=1;align=center;verticalAlign=middle;resizable=0;points=[];" vertex="1" connectable="0" parent="UZ3ScZJVWBaTOyQg6A5V-118">
          <mxGeometry x="-0.17" relative="1" as="geometry">
            <mxPoint as="offset" />
          </mxGeometry>
        </mxCell>
        <mxCell id="UZ3ScZJVWBaTOyQg6A5V-120" value="DPC&lt;div&gt;Ant &amp;amp; SPM&lt;/div&gt;" style="ellipse;whiteSpace=wrap;html=1;fillColor=#e1d5e7;strokeColor=#9673a6;" vertex="1" parent="1">
          <mxGeometry x="-240" y="520" width="80" height="40" as="geometry" />
        </mxCell>
        <mxCell id="UZ3ScZJVWBaTOyQg6A5V-121" value="" style="endArrow=classic;html=1;rounded=0;exitX=0.5;exitY=1;exitDx=0;exitDy=0;entryX=0.5;entryY=0;entryDx=0;entryDy=0;" edge="1" parent="1" source="UZ3ScZJVWBaTOyQg6A5V-115" target="UZ3ScZJVWBaTOyQg6A5V-120">
          <mxGeometry width="50" height="50" relative="1" as="geometry">
            <mxPoint x="-150" y="570" as="sourcePoint" />
            <mxPoint x="-100" y="520" as="targetPoint" />
          </mxGeometry>
        </mxCell>
        <mxCell id="UZ3ScZJVWBaTOyQg6A5V-122" value="Step 3" style="edgeLabel;html=1;align=center;verticalAlign=middle;resizable=0;points=[];" vertex="1" connectable="0" parent="UZ3ScZJVWBaTOyQg6A5V-121">
          <mxGeometry x="-0.0292" relative="1" as="geometry">
            <mxPoint as="offset" />
          </mxGeometry>
        </mxCell>
        <mxCell id="UZ3ScZJVWBaTOyQg6A5V-123" value="TDMA" style="rounded=0;whiteSpace=wrap;html=1;fillColor=#d5e8d4;strokeColor=#82b366;" vertex="1" parent="1">
          <mxGeometry x="-80" y="530" width="80" height="20" as="geometry" />
        </mxCell>
        <mxCell id="UZ3ScZJVWBaTOyQg6A5V-124" value="" style="ellipse;whiteSpace=wrap;html=1;aspect=fixed;fillColor=#f8cecc;strokeColor=#b85450;" vertex="1" parent="1">
          <mxGeometry x="-180" y="360" width="20" height="20" as="geometry" />
        </mxCell>
        <mxCell id="UZ3ScZJVWBaTOyQg6A5V-125" value="" style="ellipse;whiteSpace=wrap;html=1;aspect=fixed;fillColor=#f8cecc;strokeColor=#b85450;" vertex="1" parent="1">
          <mxGeometry x="-180" y="380" width="20" height="20" as="geometry" />
        </mxCell>
        <mxCell id="UZ3ScZJVWBaTOyQg6A5V-126" value="" style="ellipse;whiteSpace=wrap;html=1;aspect=fixed;fillColor=#f8cecc;strokeColor=#b85450;" vertex="1" parent="1">
          <mxGeometry x="-180" y="420" width="20" height="20" as="geometry" />
        </mxCell>
        <mxCell id="UZ3ScZJVWBaTOyQg6A5V-127" value="HBM Memory" style="rounded=0;whiteSpace=wrap;html=1;fillColor=#ffff88;strokeColor=#36393d;" vertex="1" parent="1">
          <mxGeometry x="-320" y="640" width="400" height="20" as="geometry" />
        </mxCell>
        <mxCell id="UZ3ScZJVWBaTOyQg6A5V-128" value="Reduce Engine" style="rounded=0;whiteSpace=wrap;html=1;fillColor=#ffcccc;strokeColor=#36393d;" vertex="1" parent="1">
          <mxGeometry x="-320" y="480" width="100" height="20" as="geometry" />
        </mxCell>
        <mxCell id="UZ3ScZJVWBaTOyQg6A5V-129" value="" style="curved=1;endArrow=classic;html=1;rounded=0;exitX=0.5;exitY=1;exitDx=0;exitDy=0;entryX=0.5;entryY=1;entryDx=0;entryDy=0;" edge="1" parent="1" source="UZ3ScZJVWBaTOyQg6A5V-120" target="UZ3ScZJVWBaTOyQg6A5V-120">
          <mxGeometry width="50" height="50" relative="1" as="geometry">
            <mxPoint x="-100" y="500" as="sourcePoint" />
            <mxPoint x="-240" y="560" as="targetPoint" />
            <Array as="points">
              <mxPoint x="-240" y="600" />
              <mxPoint x="-200" y="650" />
              <mxPoint x="-160" y="600" />
            </Array>
          </mxGeometry>
        </mxCell>
        <mxCell id="UZ3ScZJVWBaTOyQg6A5V-130" value="Step5" style="edgeLabel;html=1;align=center;verticalAlign=middle;resizable=0;points=[];" vertex="1" connectable="0" parent="UZ3ScZJVWBaTOyQg6A5V-129">
          <mxGeometry x="-0.3551" y="4" relative="1" as="geometry">
            <mxPoint as="offset" />
          </mxGeometry>
        </mxCell>
        <mxCell id="UZ3ScZJVWBaTOyQg6A5V-131" value="" style="endArrow=classic;html=1;rounded=0;exitX=1;exitY=1;exitDx=0;exitDy=0;entryX=0;entryY=1;entryDx=0;entryDy=0;" edge="1" parent="1" source="UZ3ScZJVWBaTOyQg6A5V-120" target="UZ3ScZJVWBaTOyQg6A5V-123">
          <mxGeometry width="50" height="50" relative="1" as="geometry">
            <mxPoint x="-230" y="540" as="sourcePoint" />
            <mxPoint x="-90" y="540" as="targetPoint" />
          </mxGeometry>
        </mxCell>
        <mxCell id="UZ3ScZJVWBaTOyQg6A5V-132" value="Step 4" style="edgeLabel;html=1;align=center;verticalAlign=middle;resizable=0;points=[];" vertex="1" connectable="0" parent="UZ3ScZJVWBaTOyQg6A5V-131">
          <mxGeometry x="-0.0196" relative="1" as="geometry">
            <mxPoint as="offset" />
          </mxGeometry>
        </mxCell>
        <mxCell id="UZ3ScZJVWBaTOyQg6A5V-134" value="" style="curved=1;endArrow=classic;html=1;rounded=0;entryX=0;entryY=0;entryDx=0;entryDy=0;exitX=0;exitY=1;exitDx=0;exitDy=0;" edge="1" parent="1" source="UZ3ScZJVWBaTOyQg6A5V-120" target="UZ3ScZJVWBaTOyQg6A5V-120">
          <mxGeometry width="50" height="50" relative="1" as="geometry">
            <mxPoint x="-280.00427124746193" y="557.072135623731" as="sourcePoint" />
            <mxPoint x="-280.00427124746193" y="528.7878643762689" as="targetPoint" />
            <Array as="points">
              <mxPoint x="-340" y="470" />
            </Array>
          </mxGeometry>
        </mxCell>
        <mxCell id="UZ3ScZJVWBaTOyQg6A5V-135" value="Step 6" style="edgeLabel;html=1;align=center;verticalAlign=middle;resizable=0;points=[];" vertex="1" connectable="0" parent="UZ3ScZJVWBaTOyQg6A5V-134">
          <mxGeometry x="-0.7074" relative="1" as="geometry">
            <mxPoint as="offset" />
          </mxGeometry>
        </mxCell>
        <mxCell id="UZ3ScZJVWBaTOyQg6A5V-136" value="" style="endArrow=classic;html=1;rounded=0;exitX=1;exitY=0;exitDx=0;exitDy=0;entryX=0;entryY=0;entryDx=0;entryDy=0;" edge="1" parent="1" source="UZ3ScZJVWBaTOyQg6A5V-120" target="UZ3ScZJVWBaTOyQg6A5V-123">
          <mxGeometry width="50" height="50" relative="1" as="geometry">
            <mxPoint x="-170" y="560" as="sourcePoint" />
            <mxPoint x="-120" y="510" as="targetPoint" />
          </mxGeometry>
        </mxCell>
        <mxCell id="UZ3ScZJVWBaTOyQg6A5V-137" value="Step 7" style="edgeLabel;html=1;align=center;verticalAlign=middle;resizable=0;points=[];" vertex="1" connectable="0" parent="UZ3ScZJVWBaTOyQg6A5V-136">
          <mxGeometry x="0.0123" y="1" relative="1" as="geometry">
            <mxPoint as="offset" />
          </mxGeometry>
        </mxCell>
        <mxCell id="UZ3ScZJVWBaTOyQg6A5V-138" value="LINK" style="rounded=0;whiteSpace=wrap;html=1;fillColor=#d5e8d4;strokeColor=#82b366;" vertex="1" parent="1">
          <mxGeometry x="60" y="530" width="80" height="20" as="geometry" />
        </mxCell>
        <mxCell id="UZ3ScZJVWBaTOyQg6A5V-139" value="" style="endArrow=classic;html=1;rounded=0;exitX=1;exitY=0.5;exitDx=0;exitDy=0;" edge="1" parent="1" source="UZ3ScZJVWBaTOyQg6A5V-123" target="UZ3ScZJVWBaTOyQg6A5V-138">
          <mxGeometry width="50" height="50" relative="1" as="geometry">
            <mxPoint x="-80" y="440" as="sourcePoint" />
            <mxPoint x="-30" y="390" as="targetPoint" />
          </mxGeometry>
        </mxCell>
        <mxCell id="UZ3ScZJVWBaTOyQg6A5V-140" value="Step 4/7" style="edgeLabel;html=1;align=center;verticalAlign=middle;resizable=0;points=[];" vertex="1" connectable="0" parent="UZ3ScZJVWBaTOyQg6A5V-139">
          <mxGeometry y="-1" relative="1" as="geometry">
            <mxPoint as="offset" />
          </mxGeometry>
        </mxCell>
        <mxCell id="UZ3ScZJVWBaTOyQg6A5V-141" value="TDU&lt;div&gt;Task List&lt;/div&gt;" style="text;html=1;align=center;verticalAlign=middle;whiteSpace=wrap;rounded=0;" vertex="1" parent="1">
          <mxGeometry x="-100" y="385" width="60" height="30" as="geometry" />
        </mxCell>
        <mxCell id="UZ3ScZJVWBaTOyQg6A5V-142" value="" style="endArrow=classic;html=1;rounded=0;exitX=1;exitY=0.5;exitDx=0;exitDy=0;entryX=0;entryY=1;entryDx=0;entryDy=0;" edge="1" parent="1" source="UZ3ScZJVWBaTOyQg6A5V-138" target="UZ3ScZJVWBaTOyQg6A5V-11">
          <mxGeometry width="50" height="50" relative="1" as="geometry">
            <mxPoint x="-20" y="480" as="sourcePoint" />
            <mxPoint x="30" y="430" as="targetPoint" />
          </mxGeometry>
        </mxCell>
        <mxCell id="UZ3ScZJVWBaTOyQg6A5V-143" value="" style="rounded=1;whiteSpace=wrap;html=1;fillColor=#f5f5f5;fontColor=#333333;strokeColor=#666666;" vertex="1" parent="1">
          <mxGeometry x="600" y="350" width="240" height="100" as="geometry" />
        </mxCell>
        <mxCell id="UZ3ScZJVWBaTOyQg6A5V-144" value="Host" style="rounded=0;whiteSpace=wrap;html=1;fillColor=#dae8fc;strokeColor=#6c8ebf;" vertex="1" parent="1">
          <mxGeometry x="650" y="160" width="80" height="40" as="geometry" />
        </mxCell>
        <mxCell id="UZ3ScZJVWBaTOyQg6A5V-145" value="APU" style="rounded=0;whiteSpace=wrap;html=1;fillColor=#fff2cc;strokeColor=#d6b656;" vertex="1" parent="1">
          <mxGeometry x="650" y="280" width="80" height="40" as="geometry" />
        </mxCell>
        <mxCell id="UZ3ScZJVWBaTOyQg6A5V-146" value="" style="curved=1;endArrow=classic;html=1;rounded=0;entryX=0.75;entryY=0;entryDx=0;entryDy=0;exitX=0.75;exitY=1;exitDx=0;exitDy=0;" edge="1" parent="1" source="UZ3ScZJVWBaTOyQg6A5V-144" target="UZ3ScZJVWBaTOyQg6A5V-145">
          <mxGeometry width="50" height="50" relative="1" as="geometry">
            <mxPoint x="1070" y="440" as="sourcePoint" />
            <mxPoint x="1120" y="390" as="targetPoint" />
            <Array as="points">
              <mxPoint x="770" y="240" />
            </Array>
          </mxGeometry>
        </mxCell>
        <mxCell id="UZ3ScZJVWBaTOyQg6A5V-147" value="Step 1" style="edgeLabel;html=1;align=center;verticalAlign=middle;resizable=0;points=[];" vertex="1" connectable="0" parent="UZ3ScZJVWBaTOyQg6A5V-146">
          <mxGeometry x="-0.3408" y="-15" relative="1" as="geometry">
            <mxPoint as="offset" />
          </mxGeometry>
        </mxCell>
        <mxCell id="UZ3ScZJVWBaTOyQg6A5V-148" value="" style="curved=1;endArrow=classic;html=1;rounded=0;entryX=0.262;entryY=1.003;entryDx=0;entryDy=0;exitX=0.25;exitY=0;exitDx=0;exitDy=0;entryPerimeter=0;" edge="1" parent="1" source="UZ3ScZJVWBaTOyQg6A5V-145" target="UZ3ScZJVWBaTOyQg6A5V-144">
          <mxGeometry width="50" height="50" relative="1" as="geometry">
            <mxPoint x="720" y="250" as="sourcePoint" />
            <mxPoint x="720" y="330" as="targetPoint" />
            <Array as="points">
              <mxPoint x="610" y="240" />
            </Array>
          </mxGeometry>
        </mxCell>
        <mxCell id="UZ3ScZJVWBaTOyQg6A5V-149" value="" style="rounded=0;whiteSpace=wrap;html=1;fillColor=#ffe6cc;strokeColor=#d79b00;" vertex="1" parent="1">
          <mxGeometry x="660" y="360" width="20" height="80" as="geometry" />
        </mxCell>
        <mxCell id="UZ3ScZJVWBaTOyQg6A5V-150" value="" style="rounded=0;whiteSpace=wrap;html=1;fillColor=#ffe6cc;strokeColor=#d79b00;" vertex="1" parent="1">
          <mxGeometry x="700" y="360" width="20" height="80" as="geometry" />
        </mxCell>
        <mxCell id="UZ3ScZJVWBaTOyQg6A5V-151" value="" style="rounded=0;whiteSpace=wrap;html=1;fillColor=#ffe6cc;strokeColor=#d79b00;" vertex="1" parent="1">
          <mxGeometry x="740" y="360" width="20" height="80" as="geometry" />
        </mxCell>
        <mxCell id="UZ3ScZJVWBaTOyQg6A5V-152" value="" style="rounded=0;whiteSpace=wrap;html=1;fillColor=#ffe6cc;strokeColor=#d79b00;" vertex="1" parent="1">
          <mxGeometry x="620" y="360" width="20" height="80" as="geometry" />
        </mxCell>
        <mxCell id="UZ3ScZJVWBaTOyQg6A5V-153" value="" style="endArrow=classic;html=1;rounded=0;exitX=0.5;exitY=1;exitDx=0;exitDy=0;entryX=0.5;entryY=0;entryDx=0;entryDy=0;" edge="1" parent="1" source="UZ3ScZJVWBaTOyQg6A5V-145" target="UZ3ScZJVWBaTOyQg6A5V-150">
          <mxGeometry width="50" height="50" relative="1" as="geometry">
            <mxPoint x="860" y="480" as="sourcePoint" />
            <mxPoint x="910" y="430" as="targetPoint" />
          </mxGeometry>
        </mxCell>
        <mxCell id="UZ3ScZJVWBaTOyQg6A5V-154" value="Step 2" style="edgeLabel;html=1;align=center;verticalAlign=middle;resizable=0;points=[];" vertex="1" connectable="0" parent="UZ3ScZJVWBaTOyQg6A5V-153">
          <mxGeometry x="-0.17" relative="1" as="geometry">
            <mxPoint as="offset" />
          </mxGeometry>
        </mxCell>
        <mxCell id="UZ3ScZJVWBaTOyQg6A5V-155" value="DPC&lt;div&gt;Ant &amp;amp; SPM&lt;/div&gt;" style="ellipse;whiteSpace=wrap;html=1;fillColor=#e1d5e7;strokeColor=#9673a6;" vertex="1" parent="1">
          <mxGeometry x="640" y="520" width="80" height="40" as="geometry" />
        </mxCell>
        <mxCell id="UZ3ScZJVWBaTOyQg6A5V-156" value="" style="endArrow=classic;html=1;rounded=0;exitX=0.5;exitY=1;exitDx=0;exitDy=0;entryX=0.5;entryY=0;entryDx=0;entryDy=0;" edge="1" parent="1" source="UZ3ScZJVWBaTOyQg6A5V-150" target="UZ3ScZJVWBaTOyQg6A5V-155">
          <mxGeometry width="50" height="50" relative="1" as="geometry">
            <mxPoint x="730" y="570" as="sourcePoint" />
            <mxPoint x="780" y="520" as="targetPoint" />
          </mxGeometry>
        </mxCell>
        <mxCell id="UZ3ScZJVWBaTOyQg6A5V-157" value="Step 3" style="edgeLabel;html=1;align=center;verticalAlign=middle;resizable=0;points=[];" vertex="1" connectable="0" parent="UZ3ScZJVWBaTOyQg6A5V-156">
          <mxGeometry x="-0.0292" relative="1" as="geometry">
            <mxPoint as="offset" />
          </mxGeometry>
        </mxCell>
        <mxCell id="UZ3ScZJVWBaTOyQg6A5V-158" value="TDMA" style="rounded=0;whiteSpace=wrap;html=1;fillColor=#d5e8d4;strokeColor=#82b366;" vertex="1" parent="1">
          <mxGeometry x="800" y="530" width="80" height="20" as="geometry" />
        </mxCell>
        <mxCell id="UZ3ScZJVWBaTOyQg6A5V-159" value="" style="ellipse;whiteSpace=wrap;html=1;aspect=fixed;fillColor=#f8cecc;strokeColor=#b85450;" vertex="1" parent="1">
          <mxGeometry x="700" y="360" width="20" height="20" as="geometry" />
        </mxCell>
        <mxCell id="UZ3ScZJVWBaTOyQg6A5V-160" value="" style="ellipse;whiteSpace=wrap;html=1;aspect=fixed;fillColor=#f8cecc;strokeColor=#b85450;" vertex="1" parent="1">
          <mxGeometry x="700" y="380" width="20" height="20" as="geometry" />
        </mxCell>
        <mxCell id="UZ3ScZJVWBaTOyQg6A5V-161" value="" style="ellipse;whiteSpace=wrap;html=1;aspect=fixed;fillColor=#f8cecc;strokeColor=#b85450;" vertex="1" parent="1">
          <mxGeometry x="700" y="420" width="20" height="20" as="geometry" />
        </mxCell>
        <mxCell id="UZ3ScZJVWBaTOyQg6A5V-162" value="HBM Memory" style="rounded=0;whiteSpace=wrap;html=1;fillColor=#ffff88;strokeColor=#36393d;" vertex="1" parent="1">
          <mxGeometry x="560" y="640" width="400" height="20" as="geometry" />
        </mxCell>
        <mxCell id="UZ3ScZJVWBaTOyQg6A5V-163" value="Reduce Engine" style="rounded=0;whiteSpace=wrap;html=1;fillColor=#ffcccc;strokeColor=#36393d;" vertex="1" parent="1">
          <mxGeometry x="560" y="480" width="100" height="20" as="geometry" />
        </mxCell>
        <mxCell id="UZ3ScZJVWBaTOyQg6A5V-164" value="" style="curved=1;endArrow=classic;html=1;rounded=0;exitX=0.5;exitY=1;exitDx=0;exitDy=0;entryX=0.5;entryY=1;entryDx=0;entryDy=0;" edge="1" parent="1" source="UZ3ScZJVWBaTOyQg6A5V-155" target="UZ3ScZJVWBaTOyQg6A5V-155">
          <mxGeometry width="50" height="50" relative="1" as="geometry">
            <mxPoint x="780" y="500" as="sourcePoint" />
            <mxPoint x="640" y="560" as="targetPoint" />
            <Array as="points">
              <mxPoint x="640" y="600" />
              <mxPoint x="680" y="650" />
              <mxPoint x="720" y="600" />
            </Array>
          </mxGeometry>
        </mxCell>
        <mxCell id="UZ3ScZJVWBaTOyQg6A5V-165" value="Step5" style="edgeLabel;html=1;align=center;verticalAlign=middle;resizable=0;points=[];" vertex="1" connectable="0" parent="UZ3ScZJVWBaTOyQg6A5V-164">
          <mxGeometry x="-0.3551" y="4" relative="1" as="geometry">
            <mxPoint as="offset" />
          </mxGeometry>
        </mxCell>
        <mxCell id="UZ3ScZJVWBaTOyQg6A5V-166" value="" style="endArrow=classic;html=1;rounded=0;exitX=1;exitY=1;exitDx=0;exitDy=0;entryX=0;entryY=1;entryDx=0;entryDy=0;" edge="1" parent="1" source="UZ3ScZJVWBaTOyQg6A5V-155" target="UZ3ScZJVWBaTOyQg6A5V-158">
          <mxGeometry width="50" height="50" relative="1" as="geometry">
            <mxPoint x="650" y="540" as="sourcePoint" />
            <mxPoint x="790" y="540" as="targetPoint" />
          </mxGeometry>
        </mxCell>
        <mxCell id="UZ3ScZJVWBaTOyQg6A5V-167" value="Step 4" style="edgeLabel;html=1;align=center;verticalAlign=middle;resizable=0;points=[];" vertex="1" connectable="0" parent="UZ3ScZJVWBaTOyQg6A5V-166">
          <mxGeometry x="-0.0196" relative="1" as="geometry">
            <mxPoint as="offset" />
          </mxGeometry>
        </mxCell>
        <mxCell id="UZ3ScZJVWBaTOyQg6A5V-169" value="" style="curved=1;endArrow=classic;html=1;rounded=0;entryX=0;entryY=0;entryDx=0;entryDy=0;exitX=0;exitY=1;exitDx=0;exitDy=0;" edge="1" parent="1" source="UZ3ScZJVWBaTOyQg6A5V-155" target="UZ3ScZJVWBaTOyQg6A5V-155">
          <mxGeometry width="50" height="50" relative="1" as="geometry">
            <mxPoint x="599.9957287525381" y="557.072135623731" as="sourcePoint" />
            <mxPoint x="599.9957287525381" y="528.7878643762689" as="targetPoint" />
            <Array as="points">
              <mxPoint x="540" y="470" />
            </Array>
          </mxGeometry>
        </mxCell>
        <mxCell id="UZ3ScZJVWBaTOyQg6A5V-170" value="Step 6" style="edgeLabel;html=1;align=center;verticalAlign=middle;resizable=0;points=[];" vertex="1" connectable="0" parent="UZ3ScZJVWBaTOyQg6A5V-169">
          <mxGeometry x="-0.7074" relative="1" as="geometry">
            <mxPoint as="offset" />
          </mxGeometry>
        </mxCell>
        <mxCell id="UZ3ScZJVWBaTOyQg6A5V-171" value="" style="endArrow=classic;html=1;rounded=0;exitX=1;exitY=0;exitDx=0;exitDy=0;entryX=0;entryY=0;entryDx=0;entryDy=0;" edge="1" parent="1" source="UZ3ScZJVWBaTOyQg6A5V-155" target="UZ3ScZJVWBaTOyQg6A5V-158">
          <mxGeometry width="50" height="50" relative="1" as="geometry">
            <mxPoint x="710" y="560" as="sourcePoint" />
            <mxPoint x="760" y="510" as="targetPoint" />
          </mxGeometry>
        </mxCell>
        <mxCell id="UZ3ScZJVWBaTOyQg6A5V-172" value="Step 7" style="edgeLabel;html=1;align=center;verticalAlign=middle;resizable=0;points=[];" vertex="1" connectable="0" parent="UZ3ScZJVWBaTOyQg6A5V-171">
          <mxGeometry x="0.0123" y="1" relative="1" as="geometry">
            <mxPoint as="offset" />
          </mxGeometry>
        </mxCell>
        <mxCell id="UZ3ScZJVWBaTOyQg6A5V-173" value="LINK" style="rounded=0;whiteSpace=wrap;html=1;fillColor=#d5e8d4;strokeColor=#82b366;" vertex="1" parent="1">
          <mxGeometry x="940" y="530" width="80" height="20" as="geometry" />
        </mxCell>
        <mxCell id="UZ3ScZJVWBaTOyQg6A5V-174" value="" style="endArrow=classic;html=1;rounded=0;exitX=1;exitY=0.5;exitDx=0;exitDy=0;" edge="1" parent="1" source="UZ3ScZJVWBaTOyQg6A5V-158" target="UZ3ScZJVWBaTOyQg6A5V-173">
          <mxGeometry width="50" height="50" relative="1" as="geometry">
            <mxPoint x="800" y="440" as="sourcePoint" />
            <mxPoint x="850" y="390" as="targetPoint" />
          </mxGeometry>
        </mxCell>
        <mxCell id="UZ3ScZJVWBaTOyQg6A5V-175" value="Step 4/7" style="edgeLabel;html=1;align=center;verticalAlign=middle;resizable=0;points=[];" vertex="1" connectable="0" parent="UZ3ScZJVWBaTOyQg6A5V-174">
          <mxGeometry y="-1" relative="1" as="geometry">
            <mxPoint as="offset" />
          </mxGeometry>
        </mxCell>
        <mxCell id="UZ3ScZJVWBaTOyQg6A5V-176" value="TDU&lt;div&gt;Task List&lt;/div&gt;" style="text;html=1;align=center;verticalAlign=middle;whiteSpace=wrap;rounded=0;" vertex="1" parent="1">
          <mxGeometry x="780" y="385" width="60" height="30" as="geometry" />
        </mxCell>
        <mxCell id="UZ3ScZJVWBaTOyQg6A5V-177" value="" style="endArrow=classic;html=1;rounded=0;exitX=1;exitY=0.5;exitDx=0;exitDy=0;entryX=0;entryY=1;entryDx=0;entryDy=0;" edge="1" parent="1" source="UZ3ScZJVWBaTOyQg6A5V-35" target="UZ3ScZJVWBaTOyQg6A5V-155">
          <mxGeometry width="50" height="50" relative="1" as="geometry">
            <mxPoint x="559.9999999999995" y="539.9999999999998" as="sourcePoint" />
            <mxPoint x="202" y="564" as="targetPoint" />
          </mxGeometry>
        </mxCell>
        <mxCell id="UZ3ScZJVWBaTOyQg6A5V-178" value="" style="curved=1;endArrow=classic;html=1;rounded=0;exitX=0.25;exitY=1;exitDx=0;exitDy=0;entryX=0.75;entryY=1;entryDx=0;entryDy=0;" edge="1" parent="1">
          <mxGeometry width="50" height="50" relative="1" as="geometry">
            <mxPoint x="-60" y="550" as="sourcePoint" />
            <mxPoint x="-20" y="550" as="targetPoint" />
            <Array as="points">
              <mxPoint x="-40" y="720" />
            </Array>
          </mxGeometry>
        </mxCell>
        <mxCell id="UZ3ScZJVWBaTOyQg6A5V-179" value="Step 4" style="edgeLabel;html=1;align=center;verticalAlign=middle;resizable=0;points=[];" vertex="1" connectable="0" parent="UZ3ScZJVWBaTOyQg6A5V-178">
          <mxGeometry x="0.772" y="1" relative="1" as="geometry">
            <mxPoint as="offset" />
          </mxGeometry>
        </mxCell>
        <mxCell id="UZ3ScZJVWBaTOyQg6A5V-180" value="" style="curved=1;endArrow=classic;html=1;rounded=0;exitX=0.25;exitY=1;exitDx=0;exitDy=0;entryX=0.75;entryY=1;entryDx=0;entryDy=0;" edge="1" parent="1">
          <mxGeometry width="50" height="50" relative="1" as="geometry">
            <mxPoint x="820" y="550" as="sourcePoint" />
            <mxPoint x="860" y="550" as="targetPoint" />
            <Array as="points">
              <mxPoint x="840" y="720" />
            </Array>
          </mxGeometry>
        </mxCell>
        <mxCell id="UZ3ScZJVWBaTOyQg6A5V-181" value="Step 4" style="edgeLabel;html=1;align=center;verticalAlign=middle;resizable=0;points=[];" vertex="1" connectable="0" parent="UZ3ScZJVWBaTOyQg6A5V-180">
          <mxGeometry x="0.772" y="1" relative="1" as="geometry">
            <mxPoint as="offset" />
          </mxGeometry>
        </mxCell>
      </root>
    </mxGraphModel>
  </diagram>
</mxfile>
